Coordinates
version=1
nRows=10
nColumns=63
inDegrees=yes

Units are S.I. units (second, meters, Newtons, ...)
If the header above contains a line with 'inDegrees', this indicates whether rotational values are in degrees (yes) or radians (no).

endheader
time	pelvis_tilt	pelvis_list	pelvis_rotation	pelvis_tx	pelvis_ty	pelvis_tz	hip_flexion_r	hip_adduction_r	hip_rotation_r	knee_angle_r	knee_angle_r_beta	ankle_angle_r	subtalar_angle_r	mtp_angle_r	hip_flexion_l	hip_adduction_l	hip_rotation_l	knee_angle_l	knee_angle_l_beta	ankle_angle_l	subtalar_angle_l	mtp_angle_l	L5_S1_Flex_Ext	L5_S1_Lat_Bending	L5_S1_axial_rotation	L4_L5_Flex_Ext	L4_L5_Lat_Bending	L4_L5_axial_rotation	L3_L4_Flex_Ext	L3_L4_Lat_Bending	L3_L4_axial_rotation	L2_L3_Flex_Ext	L2_L3_Lat_Bending	L2_L3_axial_rotation	L1_L2_Flex_Ext	L1_L2_Lat_Bending	L1_L2_axial_rotation	L1_T12_Flex_Ext	L1_T12_Lat_Bending	L1_T12_axial_rotation	Abs_r3	Abs_r2	Abs_r1	Abs_t1	Abs_t2	neck_flexion	neck_bending	neck_rotation	arm_flex_r	arm_add_r	arm_rot_r	elbow_flex_r	pro_sup_r	wrist_flex_r	wrist_dev_r	arm_flex_l	arm_add_l	arm_rot_l	elbow_flex_l	pro_sup_l	wrist_flex_l	wrist_dev_l
      3.76923077	     -1.12015583	     -4.96193659	    112.24023031	      0.12504465	      0.97367891	      0.37102896	     -6.87348271	     -5.07929989	    -28.84746713	      8.23699471	      0.14376268	     27.41984051	     12.98138429	      0.00000000	      1.06682497	      0.97348273	     15.40089690	      8.21936472	      0.14345498	     23.40043949	      4.01228475	      0.00000000	     -0.02585812	     -0.41248236	     -0.78534796	     -0.04802112	     -0.54860154	     -0.83443221	     -0.04248231	     -1.00290961	     -0.83443221	     -0.02955325	     -1.00290961	     -0.68717946	     -0.02401185	     -0.84113403	     -0.63809522	     -0.01477533	     -0.63893518	     -0.58901097	     -0.18470197	     -4.66608296	     -4.36786974	      0.00000000	      0.00000000	     24.39678721	      3.92098726	    -20.21972533	    122.01594255	    -60.46855623	     37.64497082	    118.51137534	     26.76368480	     48.08339533	     23.70083878	      9.21294597	    -15.05191470	    532.20071367	      1.10604431	     17.64846303	    -30.47661434	     -6.22687262
      3.78846154	     -1.31234776	     -4.96547432	    113.02037727	      0.12462162	      0.97335261	      0.37097822	     -7.00405680	     -5.22094184	    -29.69518884	      8.55993316	      0.14939902	     27.67518933	     13.04782969	      0.00000000	      1.17128599	      1.06689808	     14.67645903	      8.52109994	      0.14872125	     23.45637231	      5.78108052	      0.00000000	     -0.04352210	     -0.45399402	     -0.70011304	     -0.08082489	     -0.60381205	     -0.74387010	     -0.07150245	     -1.10384107	     -0.74387010	     -0.04974140	     -1.10384107	     -0.61259891	     -0.04041462	     -0.92578461	     -0.56884184	     -0.02486853	     -0.70323674	     -0.52508478	     -0.31087398	     -5.13567119	     -3.89381869	      0.00000000	      0.00000000	     24.28033848	      4.74379328	    -19.40941622	    122.36072885	    -59.98359920	     36.65346747	    118.16258971	     25.98745900	     49.82680198	     27.73481374	      8.51821808	    -15.46025756	    525.67647442	      1.11945970	     10.78910147	    -28.53604503	    -11.88361917
      3.80769231	     -1.49292208	     -4.98162162	    113.79242664	      0.12421239	      0.97308751	      0.37103963	     -7.09717373	     -5.36241533	    -30.53527506	      8.91459229	      0.15558899	     27.88153250	     13.04603698	      0.00000000	      1.28233214	      1.15689485	     14.06729821	      8.73643952	      0.15247963	     23.53372817	      7.31887916	      0.00000000	     -0.05825731	     -0.49571025	     -0.61661360	     -0.10818965	     -0.65929463	     -0.65515195	     -0.09571093	     -1.20526991	     -0.65515195	     -0.06658228	     -1.20526991	     -0.53953690	     -0.05409774	     -1.01085235	     -0.50099855	     -0.03328823	     -0.76785518	     -0.46246020	     -0.41612612	     -5.60757351	     -3.42941985	      0.00000000	      0.00000000	     23.74336846	      5.71825362	    -18.79111821	    122.80159666	    -59.44331552	     35.47709958	    117.87180588	     26.85663249	     52.94909333	     31.11204623	      7.80868968	    -15.77581382	    519.61701505	      1.04746116	      5.65915220	    -24.84199656	    -15.93315443
      3.82692308	     -1.63486397	     -5.00492110	    114.56541879	      0.12380099	      0.97295557	      0.37106922	     -7.16444538	     -5.48219837	    -31.43000226	      9.27448197	      0.16187025	     28.01796792	     13.08163171	      0.00000000	      1.44251391	      1.16029215	     12.94777030	      8.95348895	      0.15626786	     23.88434066	      9.59873651	      0.00000000	     -0.06203343	     -0.53532190	     -0.59998824	     -0.11520228	     -0.71197813	     -0.63748750	     -0.10191472	     -1.30158167	     -0.63748750	     -0.07089800	     -1.30158167	     -0.52498971	     -0.05760424	     -1.09162842	     -0.48749044	     -0.03544590	     -0.82921363	     -0.44999118	     -0.44309857	     -6.05566841	     -3.33695457	      0.00000000	      0.00000000	     22.73176825	      7.15101378	    -17.84724632	    122.27116040	    -57.07199398	     28.34204195	    119.64514639	     55.82709004	     63.75791928	     28.70130985	      6.83243242	    -16.07411973	    511.23542763	      0.98466370	      4.48489212	    -20.72129803	    -18.64964886
      3.84615385	     -1.79089882	     -5.04140815	    115.09944956	      0.12343039	      0.97288274	      0.37083309	     -7.14995800	     -5.67000274	    -31.97884956	      9.70023724	      0.16930108	     28.15414330	     12.92595664	      0.00000000	      1.37462175	      1.34697894	     13.97638995	      8.81824189	      0.15390736	     23.92172745	      8.61659583	      0.00000000	     -0.06305713	     -0.56944084	     -0.54288224	     -0.11710339	     -0.75735631	     -0.57681238	     -0.10359655	     -1.38453845	     -0.57681238	     -0.07206799	     -1.38453845	     -0.47502196	     -0.05855485	     -1.16120376	     -0.44109182	     -0.03603084	     -0.88206386	     -0.40716168	     -0.45041075	     -6.44162865	     -3.01934817	      0.00000000	      0.00000000	     21.49456194	      8.59792643	    -16.75224383	    122.39104975	    -56.07820946	     25.42875425	    122.56984647	     71.04688463	     67.49224741	     30.34623645	      5.91142688	    -16.31301361	    504.70640721	      0.88915662	      3.71633645	    -16.71228227	    -19.94753362
      3.86538462	     -1.79809789	     -4.95889400	    115.45152011	      0.12290783	      0.97286542	      0.37046244	     -7.14252686	     -5.70059148	    -32.19350432	     10.11615285	      0.17656017	     28.24527206	     12.65273251	      0.00000000	      1.21429758	      1.35472823	     15.02444405	      8.64375148	      0.15086192	     24.08971387	      7.44526317	      0.00000000	     -0.06468581	     -0.57507672	     -0.48112535	     -0.12012802	     -0.76485204	     -0.51119568	     -0.10627232	     -1.39824155	     -0.51119568	     -0.07392942	     -1.39824155	     -0.42098468	     -0.06006725	     -1.17269646	     -0.39091435	     -0.03696147	     -0.89079385	     -0.36084401	     -0.46204430	     -6.50538292	     -2.67587486	      0.00000000	      0.00000000	     20.07973443	      9.73148398	    -15.58169138	    122.96447238	    -55.63338136	     24.99204856	    123.69314620	     76.47660049	     68.51618491	     31.22120856	      5.05822364	    -16.45596216	    500.27978306	      0.79366554	      2.85697657	    -12.75527281	    -20.04992620
      3.88461538	     -1.77043505	     -4.76840077	    115.73348205	      0.12218785	      0.97296479	      0.37001902	     -7.19639945	     -5.69150272	    -32.47095063	     10.58560796	      0.18475371	     28.29243239	     12.43294603	      0.00000000	      1.00693632	      1.24415944	     15.27752432	      8.57838188	      0.14972101	     24.47379781	      7.44768610	      0.00000000	     -0.07109325	     -0.57750440	     -0.38358110	     -0.13202727	     -0.76808085	     -0.40755492	     -0.11679910	     -1.40414420	     -0.40755492	     -0.08125247	     -1.40414420	     -0.33563346	     -0.06601719	     -1.17764697	     -0.31165964	     -0.04062268	     -0.89455432	     -0.28768583	     -0.50781197	     -6.53284527	     -2.13336301	      0.00000000	      0.00000000	     18.59194354	     10.70270361	    -15.23476634	    123.57423113	    -55.52264278	     24.94713327	    123.73456025	     76.74421367	     68.80775398	     31.69737374	      4.32754824	    -16.54011030	    499.23722933	      0.72660552	      2.02442535	    -11.79081684	    -19.42254538
      3.90384615	     -1.61889658	     -4.68620795	    115.79155460	      0.12149050	      0.97294566	      0.36993554	     -7.02437822	     -5.67396666	    -32.46457546	     11.05134068	      0.19288228	     28.32746228	     12.38632102	      0.00000000	      0.85983717	      1.10541928	     15.61581402	      8.33101846	      0.14540370	     24.28578403	      6.91788354	      0.00000000	     -0.04938265	     -0.55379314	     -0.34433794	     -0.09170852	     -0.73654488	     -0.36585906	     -0.08113076	     -1.34649265	     -0.36585906	     -0.05643943	     -1.34649265	     -0.30129570	     -0.04585673	     -1.12929498	     -0.27977458	     -0.02821725	     -0.85782558	     -0.25825346	     -0.35273534	     -6.26461880	     -1.91510434	      0.00000000	      0.00000000	     17.33914650	     11.87505892	    -13.31102096	    124.56727758	    -54.60307260	     25.23201170	    124.19735626	     78.35355326	     68.73290390	     32.60368691	      3.46956715	    -16.46773317	    495.29040551	      0.64718940	      1.80618715	     -7.33768831	    -17.74861840
      3.92307692	     -1.55936838	     -4.35914998	    116.02617329	      0.12083922	      0.97328203	      0.36992348	     -7.16179538	     -5.57975278	    -32.58736193	     11.46688218	      0.20013485	     28.29352530	     12.26522180	      0.00000000	      0.48368948	      1.04253290	     17.55055528	      8.26292074	      0.14421517	     23.76973683	      4.35450731	      0.00000000	     -0.07289087	     -0.54744583	     -0.32155581	     -0.13536563	     -0.72810295	     -0.34165304	     -0.11975240	     -1.33105978	     -0.34165304	     -0.08330697	     -1.33105978	     -0.28136133	     -0.06768646	     -1.11635153	     -0.26126409	     -0.04164984	     -0.84799359	     -0.24116686	     -0.52065217	     -6.19281669	     -1.78839693	      0.00000000	      0.00000000	     16.17490572	     12.84655863	    -12.87741679	    124.82755402	    -53.40872637	     23.80390545	    125.76043820	     84.79015296	     68.59980073	     32.13898719	      2.70759441	    -16.59858391	    492.51288373	      0.62157668	      1.94971882	     -4.64991126	    -17.50299237
      3.94230769	     -1.38815809	     -4.18030489	    116.24588392	      0.12011134	      0.97348256	      0.37010865	     -7.04387377	     -5.46702831	    -32.65542732	     11.94280652	      0.20844130	     28.37126738	     12.12132845	      0.00000000	      0.40617739	      0.86377221	     17.92559641	      8.32798514	      0.14535076	     23.57658742	      4.05746741	      0.00000000	     -0.06720165	     -0.53606743	     -0.23589292	     -0.12480018	     -0.71296969	     -0.25063622	     -0.11040559	     -1.30339436	     -0.25063622	     -0.07680476	     -1.30339436	     -0.20640630	     -0.06240345	     -1.09314871	     -0.19166299	     -0.03839902	     -0.83036845	     -0.17691969	     -0.48001466	     -6.06410202	     -1.31196563	      0.00000000	      0.00000000	     15.29311620	     13.63777256	    -13.04355467	    126.07008767	    -52.37126056	     23.25621673	    126.68707900	     86.73906628	     67.91724264	     32.15339160	      2.27948060	    -16.64290092	    491.44861838	      0.62423436	      1.81501993	     -2.69188233	    -16.43144851
